<svg width="100" height="100" viewBox="0 0 100 100" fill="none" xmlns="http://www.w3.org/2000/svg">
<rect width="100" height="100" rx="50" fill="#F4F5F7"/>
<path d="M65.5 70.0002H50.5C50.058 70.0002 49.6341 69.8246 49.3215 69.512C49.009 69.1994 48.8334 68.7755 48.8334 68.3335V65.0002C48.8334 64.5581 49.009 64.1342 49.3215 63.8217C49.6341 63.5091 50.058 63.3335 50.5 63.3335H65.5C65.9421 63.3335 66.366 63.5091 66.6786 63.8217C66.9911 64.1342 67.1667 64.5581 67.1667 65.0002V68.3335C67.1667 68.7755 66.9911 69.1994 66.6786 69.512C66.366 69.8246 65.9421 70.0002 65.5 70.0002Z" fill="#D6B1FF"/>
<path d="M65.5 30H35.5C35.058 30 34.6341 30.1756 34.3215 30.4882C34.009 30.8007 33.8334 31.2246 33.8334 31.6667V35C33.8334 35.442 34.009 35.866 34.3215 36.1785C34.6341 36.4911 35.058 36.6667 35.5 36.6667H65.5C65.9421 36.6667 66.366 36.4911 66.6786 36.1785C66.9911 35.866 67.1667 35.442 67.1667 35V31.6667C67.1667 31.2246 66.9911 30.8007 66.6786 30.4882C66.366 30.1756 65.9421 30 65.5 30Z" fill="#2EC5CE"/>
<path d="M65.5 40H35.5C35.058 40 34.6341 40.1756 34.3215 40.4882C34.009 40.8007 33.8334 41.2246 33.8334 41.6667V58.3333C33.8334 58.7754 34.009 59.1993 34.3215 59.5118C34.6341 59.8244 35.058 60 35.5 60H65.5C65.9421 60 66.366 59.8244 66.6786 59.5118C66.9911 59.1993 67.1667 58.7754 67.1667 58.3333V41.6667C67.1667 41.2246 66.9911 40.8007 66.6786 40.4882C66.366 40.1756 65.9421 40 65.5 40Z" fill="#8C30F5"/>
</svg>
