<svg width="100" height="100" viewBox="0 0 100 100" fill="none" xmlns="http://www.w3.org/2000/svg">
<rect width="100" height="100" rx="50" fill="#F4F5F7"/>
<path d="M60 46.6667H70L65 40L60 46.6667ZM60 53.3333H70L65 60L60 53.3333Z" fill="#D6B1FF"/>
<path d="M31.6667 30H41.6667V70H31.6667C31.2246 70 30.8007 69.8244 30.4882 69.5118C30.1756 69.1993 30 68.7754 30 68.3333V31.6667C30 31.2246 30.1756 30.8007 30.4882 30.4882C30.8007 30.1756 31.2246 30 31.6667 30Z" fill="#8C30F5"/>
<path d="M45 30H55C55.442 30 55.866 30.1756 56.1785 30.4882C56.4911 30.8007 56.6667 31.2246 56.6667 31.6667V68.3333C56.6667 68.7754 56.4911 69.1993 56.1785 69.5118C55.866 69.8244 55.442 70 55 70H45V30Z" fill="#2EC5CE"/>
</svg>
