<svg width="100" height="100" viewBox="0 0 100 100" fill="none" xmlns="http://www.w3.org/2000/svg">
<rect width="100" height="100" rx="50" fill="#F4F5F7"/>
<path d="M45.5001 46.6665H33.8334C33.3914 46.6665 32.9675 46.4909 32.6549 46.1783C32.3423 45.8658 32.1667 45.4419 32.1667 44.9998V33.3332C32.1667 32.8911 32.3423 32.4672 32.6549 32.1547C32.9675 31.8421 33.3914 31.6665 33.8334 31.6665H45.5001C45.9421 31.6665 46.366 31.8421 46.6786 32.1547C46.9912 32.4672 47.1667 32.8911 47.1667 33.3332V44.9998C47.1667 45.4419 46.9912 45.8658 46.6786 46.1783C46.366 46.4909 45.9421 46.6665 45.5001 46.6665Z" fill="#8C30F5"/>
<path d="M45.5001 68.333H33.8334C33.3914 68.333 32.9675 68.1574 32.6549 67.8449C32.3423 67.5323 32.1667 67.1084 32.1667 66.6663V54.9997C32.1667 54.5576 32.3423 54.1337 32.6549 53.8212C32.9675 53.5086 33.3914 53.333 33.8334 53.333H45.5001C45.9421 53.333 46.366 53.5086 46.6786 53.8212C46.9912 54.1337 47.1667 54.5576 47.1667 54.9997V66.6663C47.1667 67.1084 46.9912 67.5323 46.6786 67.8449C46.366 68.1574 45.9421 68.333 45.5001 68.333Z" fill="#8C30F5"/>
<path d="M52.1667 33.333H68.8334V36.6663H52.1667V33.333Z" fill="#2EC5CE"/>
<path d="M68.8334 55H52.1667V58.3333H68.8334V55Z" fill="#2EC5CE"/>
<path d="M68.8334 63.333H52.1667V66.6663H68.8334V63.333Z" fill="#D6B1FF"/>
<path d="M68.8334 41.6665H52.1667V44.9998H68.8334V41.6665Z" fill="#D6B1FF"/>
</svg>
