<svg width="100" height="100" viewBox="0 0 100 100" fill="none" xmlns="http://www.w3.org/2000/svg">
<rect width="100" height="100" rx="50" fill="#F4F5F7"/>
<path d="M38.8333 31.6665H33.8333C33.3913 31.6665 32.9673 31.8421 32.6548 32.1547C32.3422 32.4672 32.1666 32.8911 32.1666 33.3332V66.6665C32.1666 67.1085 32.3422 67.5325 32.6548 67.845C32.9673 68.1576 33.3913 68.3332 33.8333 68.3332H38.8333V31.6665Z" fill="#D6B1FF"/>
<path d="M42.1666 68.3332H58.8333V31.6665H42.1666V68.3332ZM50.5 61.6665C50.0579 61.6665 49.634 61.4909 49.3214 61.1783C49.0089 60.8658 48.8333 60.4419 48.8333 59.9998C48.8333 59.5578 49.0089 59.1339 49.3214 58.8213C49.634 58.5088 50.0579 58.3332 50.5 58.3332C50.942 58.3332 51.3659 58.5088 51.6785 58.8213C51.991 59.1339 52.1666 59.5578 52.1666 59.9998C52.1666 60.4419 51.991 60.8658 51.6785 61.1783C51.3659 61.4909 50.942 61.6665 50.5 61.6665ZM50.5 38.3332C50.942 38.3332 51.3659 38.5088 51.6785 38.8213C51.991 39.1339 52.1666 39.5578 52.1666 39.9998C52.1666 40.4419 51.991 40.8658 51.6785 41.1783C51.3659 41.4909 50.942 41.6665 50.5 41.6665C50.0579 41.6665 49.634 41.4909 49.3214 41.1783C49.0089 40.8658 48.8333 40.4419 48.8333 39.9998C48.8333 39.5578 49.0089 39.1339 49.3214 38.8213C49.634 38.5088 50.0579 38.3332 50.5 38.3332ZM50.5 48.3332C50.942 48.3332 51.3659 48.5088 51.6785 48.8213C51.991 49.1339 52.1666 49.5578 52.1666 49.9998C52.1666 50.4419 51.991 50.8658 51.6785 51.1783C51.3659 51.4909 50.942 51.6665 50.5 51.6665C50.0579 51.6665 49.634 51.4909 49.3214 51.1783C49.0089 50.8658 48.8333 50.4419 48.8333 49.9998C48.8333 49.5578 49.0089 49.1339 49.3214 48.8213C49.634 48.5088 50.0579 48.3332 50.5 48.3332Z" fill="#8C30F5"/>
<path d="M67.1667 31.6665H62.1667V68.3332H67.1667C67.6088 68.3332 68.0327 68.1576 68.3453 67.845C68.6578 67.5325 68.8334 67.1085 68.8334 66.6665V33.3332C68.8334 32.8911 68.6578 32.4672 68.3453 32.1547C68.0327 31.8421 67.6088 31.6665 67.1667 31.6665Z" fill="#2EC5CE"/>
</svg>
