<svg width="22" height="20" viewBox="0 0 22 20" fill="none" xmlns="http://www.w3.org/2000/svg">
<path d="M0.388585 9.61064L5.45783 11.487L7.41993 17.745C7.54548 18.1458 8.03967 18.2939 8.36769 18.028L11.1934 15.7434C11.4896 15.5041 11.9115 15.4922 12.221 15.715L17.3175 19.3846C17.6684 19.6376 18.1655 19.4469 18.2535 19.0264L21.987 1.2161C22.0831 0.75675 21.628 0.37355 21.1869 0.542714L0.382645 8.50206C-0.130762 8.69842 -0.126288 9.4193 0.388585 9.61064ZM7.10372 10.4882L17.0109 4.43675C17.189 4.32831 17.3721 4.56708 17.2192 4.70773L9.04295 12.2452C8.75555 12.5105 8.57017 12.8656 8.51766 13.2509L8.23914 15.2979C8.20225 15.5712 7.81512 15.5984 7.73908 15.3338L6.6679 11.6011C6.54521 11.1754 6.724 10.7206 7.10372 10.4882Z" fill="#024592"/>
</svg>
